<svg width="25" height="25" viewBox="0 0 25 25" fill="none" xmlns="http://www.w3.org/2000/svg">
    <path d="M12.5713 0.757507C5.90943 0.757507 0.40271 6.16944 0.40271 12.8314C0.40271 19.4933 5.90943 24.9999 12.5713 24.9999C19.2331 24.9999 24.6451 19.4933 24.6451 12.8314C24.6451 6.16944 19.2331 0.757507 12.5713 0.757507Z" fill="#F29412"/>
    <path d="M12.5235 0C5.8617 0 0.35498 5.41193 0.35498 12.0739C0.35498 18.7358 5.8617 24.2424 12.5235 24.2424C19.1854 24.2424 24.5974 18.7358 24.5974 12.0739C24.5974 5.41193 19.1854 0 12.5235 0Z" fill="url(#paint0_linear)"/>
    <path d="M12.5238 2.84052C7.4385 2.84052 3.19617 6.98819 3.19617 12.0735C3.19617 17.1587 7.4385 21.4011 12.5238 21.4011C17.6091 21.4011 21.7568 17.1587 21.7568 12.0735C21.7568 6.98819 17.6091 2.84052 12.5238 2.84052Z" fill="#F29412"/>
    <path d="M12.5225 3.21997C7.54101 3.21997 3.38525 7.283 3.38525 12.2645C3.38525 17.246 7.54101 21.4018 12.5225 21.4018C17.5041 21.4018 21.5671 17.246 21.5671 12.2645C21.5671 7.283 17.5041 3.21997 12.5225 3.21997Z" fill="url(#paint1_linear)"/>
    <path d="M15.8246 13.5536C15.761 13.3383 15.6839 13.151 15.5933 12.9919C15.5028 12.8326 15.3731 12.6773 15.204 12.5253C15.0352 12.3735 14.8833 12.2512 14.7486 12.1582C14.614 12.0651 14.4291 11.9611 14.194 11.8459C13.9591 11.7308 13.773 11.6451 13.636 11.5888C13.4988 11.5325 13.3003 11.4554 13.0408 11.3574C12.8106 11.2693 12.6393 11.202 12.5266 11.1555C12.4139 11.1089 12.2659 11.0429 12.0822 10.9571C11.8986 10.8715 11.7615 10.7955 11.6709 10.7295C11.5803 10.6634 11.4836 10.5826 11.3808 10.4871C11.2779 10.3917 11.2057 10.29 11.164 10.1823C11.1225 10.0746 11.1016 9.95701 11.1016 9.82968C11.1016 9.49676 11.2485 9.2249 11.5423 9.01439C11.8361 8.80388 12.2157 8.69858 12.6809 8.69858C12.8865 8.69858 13.0961 8.7267 13.309 8.78307C13.5218 8.83944 13.7043 8.90294 13.8561 8.974C14.008 9.04506 14.1512 9.12342 14.2859 9.20907C14.4206 9.2948 14.5161 9.35963 14.5724 9.4037C14.6288 9.4478 14.6644 9.47716 14.679 9.49187C14.7427 9.54084 14.8087 9.55794 14.8772 9.54331C14.9507 9.53842 15.007 9.49918 15.0463 9.42581L15.6414 8.35336C15.7001 8.25546 15.688 8.16241 15.6047 8.07421C15.5752 8.04483 15.5387 8.01059 15.4943 7.97138C15.4503 7.93217 15.3548 7.86118 15.2078 7.7583C15.0609 7.65549 14.9054 7.56366 14.7415 7.48285C14.5774 7.40212 14.3643 7.32005 14.1023 7.23684C13.8404 7.15351 13.5698 7.09724 13.2906 7.06789V5.77503C13.2906 5.70652 13.2686 5.65017 13.2246 5.60607C13.1806 5.56208 13.1242 5.53998 13.0556 5.53998H12.0639C12.0002 5.53998 11.9451 5.56321 11.8986 5.60975C11.8521 5.65629 11.8288 5.71135 11.8288 5.77503V7.09722C11.06 7.24407 10.4356 7.57218 9.95571 8.08147C9.47586 8.59078 9.23584 9.18322 9.23584 9.85907C9.23584 10.0598 9.25673 10.2508 9.29836 10.4319C9.33994 10.6132 9.39139 10.776 9.45262 10.9204C9.51381 11.065 9.60077 11.2069 9.71338 11.3465C9.82599 11.4861 9.93253 11.6061 10.0329 11.7064C10.1333 11.8067 10.2643 11.9108 10.4259 12.0185C10.5875 12.1263 10.7259 12.2133 10.841 12.2794C10.9561 12.3452 11.1091 12.4214 11.3 12.5069C11.491 12.5926 11.6416 12.6574 11.7518 12.7016C11.862 12.7456 12.0126 12.8069 12.2036 12.8851C12.468 12.9879 12.664 13.0676 12.7913 13.1239C12.9187 13.1802 13.0802 13.2586 13.2762 13.359C13.472 13.4593 13.6152 13.5511 13.7059 13.6344C13.7965 13.7177 13.8785 13.8205 13.952 13.9429C14.0255 14.0653 14.0623 14.1951 14.0623 14.3322C14.0623 14.7191 13.9117 15.0178 13.6104 15.2282C13.3093 15.4388 12.9603 15.5441 12.5637 15.5441C12.3827 15.5441 12.2014 15.5246 12.0202 15.4854C11.3836 15.358 10.7887 15.0519 10.2353 14.5671L10.2206 14.5524C10.1765 14.4987 10.1177 14.4766 10.0443 14.4865C9.96598 14.4963 9.90963 14.5257 9.87539 14.5747L9.11878 15.5663C9.0453 15.6642 9.05026 15.7646 9.13349 15.8674C9.15801 15.8968 9.20085 15.941 9.26203 15.9997C9.32337 16.0586 9.43724 16.1502 9.60365 16.2753C9.77011 16.4003 9.95131 16.5176 10.1472 16.628C10.3431 16.7381 10.5916 16.847 10.8928 16.9548C11.194 17.0624 11.5062 17.1383 11.8294 17.1823V18.4678C11.8294 18.5315 11.8527 18.5865 11.8992 18.6331C11.9457 18.6797 12.0008 18.7029 12.0644 18.7029H13.0561C13.1248 18.7029 13.1811 18.6809 13.2251 18.6368C13.2692 18.5928 13.2911 18.5365 13.2911 18.4678V17.1823C14.0698 17.055 14.7028 16.7208 15.19 16.1797C15.6772 15.6385 15.9209 14.9933 15.9209 14.2442C15.9206 13.9994 15.8889 13.7692 15.8246 13.5536Z" fill="white"/>
    <defs>
        <linearGradient id="paint0_linear" x1="12.4762" y1="0" x2="15.6722" y2="24.2424" gradientUnits="userSpaceOnUse">
            <stop stop-color="#FEDC27"/>
            <stop offset="1" stop-color="#FFC700"/>
        </linearGradient>
        <linearGradient id="paint1_linear" x1="12.4762" y1="3.21997" x2="12.4762" y2="21.4018" gradientUnits="userSpaceOnUse">
            <stop stop-color="#FEB932"/>
            <stop offset="1" stop-color="#FFA900"/>
        </linearGradient>
    </defs>
</svg>
